<?xml version="1.0" encoding="UTF-8" standalone="no"?>
<!-- Created with Inkscape (http://www.inkscape.org/) -->

<svg
   xmlns:dc="http://purl.org/dc/elements/1.1/"
   xmlns:cc="http://creativecommons.org/ns#"
   xmlns:rdf="http://www.w3.org/1999/02/22-rdf-syntax-ns#"
   xmlns:svg="http://www.w3.org/2000/svg"
   xmlns="http://www.w3.org/2000/svg"
   xmlns:sodipodi="http://sodipodi.sourceforge.net/DTD/sodipodi-0.dtd"
   xmlns:inkscape="http://www.inkscape.org/namespaces/inkscape"
   id="svg2"
   version="1.1"
   inkscape:version="0.48.4 r9939"
   width="254.6875"
   height="254.6875"
   xml:space="preserve"
   sodipodi:docname="code (1).ai"><metadata
     id="metadata8"><rdf:RDF><cc:Work
         rdf:about=""><dc:format>image/svg+xml</dc:format><dc:type
           rdf:resource="http://purl.org/dc/dcmitype/StillImage" /><dc:title></dc:title></cc:Work></rdf:RDF></metadata><defs
     id="defs6"><clipPath
       clipPathUnits="userSpaceOnUse"
       id="clipPath16"><path
         d="m 0,203.75 203.75,0 L 203.75,0 0,0 0,203.75 z"
         id="path18" /></clipPath></defs><sodipodi:namedview
     pagecolor="#ffffff"
     bordercolor="#666666"
     borderopacity="1"
     objecttolerance="10"
     gridtolerance="10"
     guidetolerance="10"
     inkscape:pageopacity="0"
     inkscape:pageshadow="2"
     inkscape:window-width="640"
     inkscape:window-height="480"
     id="namedview4"
     showgrid="false"
     inkscape:zoom="0.92662577"
     inkscape:cx="127.34375"
     inkscape:cy="127.34375"
     inkscape:window-x="341"
     inkscape:window-y="89"
     inkscape:window-maximized="0"
     inkscape:current-layer="g10" /><g
     id="g10"
     inkscape:groupmode="layer"
     inkscape:label="code (1)"
     transform="matrix(1.25,0,0,-1.25,0,254.6875)"><g
       id="g12"><g
         id="g14"
         clip-path="url(#clipPath16)"><g
           id="g20"
           transform="translate(120.4775,95.0967)"><path
             d="m 0,0 0,16.154 c 0,8.925 -7.485,16.157 -16.722,16.157 -9.235,0 -16.719,-7.232 -16.719,-16.157 L -33.441,0 0,0 z"
             style="fill:#c64140;fill-opacity:1;fill-rule:nonzero;stroke:none"
             id="path22" /></g><g
           id="g24"
           transform="translate(143.4033,139.373)"><path
             d="m 0,0 -79.296,0 c -3.058,0 -5.543,-2.404 -5.543,-5.356 l 0,-54.974 c 0,-2.955 2.485,-5.358 5.543,-5.358 l 9.774,0 c 0.676,2.676 1.713,5.392 3.142,7.946 l -12.916,0 c -0.791,0 -1.432,0.62 -1.432,1.383 l 0,51.003 c 0,0.762 0.641,1.385 1.432,1.385 l 79.296,0 c 0.791,0 1.433,-0.623 1.433,-1.385 l 0,-51.003 c 0,-0.763 -0.642,-1.383 -1.433,-1.383 l -12.902,0 c 1.425,-2.552 2.459,-5.267 3.132,-7.946 l 9.77,0 c 3.057,0 5.545,2.403 5.545,5.358 l 0,54.974 C 5.545,-2.404 3.057,0 0,0"
             style="fill:#ec6640;fill-opacity:1;fill-rule:nonzero;stroke:none"
             id="path26" /></g><g
           id="g28"
           transform="translate(131.3311,69.9844)"><path
             d="m 0,0 c -0.02,0.102 -0.043,0.2 -0.069,0.302 -0.426,2.607 -3.962,20.269 -21.64,20.401 -1.784,0.164 -3.853,0.299 -5.864,0.299 -2.323,0 -4.464,-0.135 -6.217,-0.301 C -51.171,20.344 -54.654,2.892 -55.08,0.302 -55.107,0.2 -55.131,0.102 -55.15,0 L 0,0 z"
             style="fill:#c64140;fill-opacity:1;fill-rule:nonzero;stroke:none"
             id="path30" /></g><g
           id="g32"
           transform="translate(24.5928,106.0762)"><path
             d="M 0,0 21.706,-18.804 23.99,-16.243 4.702,0.068 23.99,17.077 21.706,19.357 0,0 z"
             style="fill:#6a6b6d;fill-opacity:1;fill-rule:nonzero;stroke:none"
             id="path34" /></g><g
           id="g36"
           transform="translate(158.9297,122.875)"><path
             d="M 0,0 19.288,-16.317 0,-33.321 2.28,-35.604 23.99,-16.245 2.28,2.559 0,0 z"
             style="fill:#6a6b6d;fill-opacity:1;fill-rule:nonzero;stroke:none"
             id="path38" /></g></g></g></g></svg>